<?xml version="1.0" encoding="UTF-8" standalone="no"?>
<!-- Created with Inkscape (http://www.inkscape.org/) -->

<svg
   xmlns:dc="http://purl.org/dc/elements/1.1/"
   xmlns:cc="http://creativecommons.org/ns#"
   xmlns:rdf="http://www.w3.org/1999/02/22-rdf-syntax-ns#"
   xmlns:svg="http://www.w3.org/2000/svg"
   xmlns="http://www.w3.org/2000/svg"
   xmlns:sodipodi="http://sodipodi.sourceforge.net/DTD/sodipodi-0.dtd"
   xmlns:inkscape="http://www.inkscape.org/namespaces/inkscape"
   width="205mm"
   height="205mm"
   viewBox="0 0 205 205"
   version="1.1"
   id="svg8"
   inkscape:version="0.92.4 5da689c313, 2019-01-14"
   sodipodi:docname="sos-logo.svg">
  <defs
     id="defs2" />
  <sodipodi:namedview
     id="base"
     pagecolor="#68ffff"
     bordercolor="#666666"
     borderopacity="1.0"
     inkscape:pageopacity="0"
     inkscape:pageshadow="2"
     inkscape:zoom="0.7"
     inkscape:cx="227.19563"
     inkscape:cy="517.49809"
     inkscape:document-units="mm"
     inkscape:current-layer="layer1"
     showgrid="false"
     inkscape:window-width="1920"
     inkscape:window-height="1024"
     inkscape:window-x="1360"
     inkscape:window-y="30"
     inkscape:window-maximized="1" />
  <metadata
     id="metadata5">
    <rdf:RDF>
      <cc:Work
         rdf:about="">
        <dc:format>image/svg+xml</dc:format>
        <dc:type
           rdf:resource="http://purl.org/dc/dcmitype/StillImage" />
        <dc:title></dc:title>
      </cc:Work>
    </rdf:RDF>
  </metadata>
  <g
     inkscape:label="Layer 1"
     inkscape:groupmode="layer"
     id="layer1"
     transform="translate(0,-92)">
    <g
       id="g4770"
       transform="matrix(0.99905732,0,0,0.99905411,-2.4010186,46.140465)">
      <path
         sodipodi:nodetypes="ccccc"
         inkscape:connector-curvature="0"
         id="path4581-5-1-2"
         d="m 71.739832,56.20822 16.68347,46.31093 c 11.578428,-4.815334 22.408718,-1.50057 33.435688,-0.32309 L 139.75943,56.427285 C 116.83579,40.663011 98.274588,47.127753 71.739832,56.20822 Z"
         style="fill:#ffffff;fill-opacity:1;stroke:#000000;stroke-width:0.25418028px;stroke-linecap:butt;stroke-linejoin:miter;stroke-opacity:1" />
      <path
         sodipodi:nodetypes="ccccc"
         inkscape:connector-curvature="0"
         id="path4581-5-1-2-6"
         d="m 71.297534,240.04729 16.683475,-46.31094 c 11.57842,4.81534 22.408711,1.50058 33.435681,0.32309 l 17.90044,45.76878 c -22.92364,15.76427 -41.484841,9.29953 -68.019596,0.21907 z"
         style="fill:#ffffff;fill-opacity:1;stroke:#000000;stroke-width:0.25418028px;stroke-linecap:butt;stroke-linejoin:miter;stroke-opacity:1" />
      <path
         sodipodi:nodetypes="ccccc"
         inkscape:connector-curvature="0"
         id="path4581-5-1-2-1"
         d="m 196.22418,115.39982 -46.31093,16.68347 c 4.81534,11.57843 1.50057,22.40872 0.32309,33.43569 l 45.76878,17.90044 c 15.76427,-22.92364 9.29953,-41.48484 0.21906,-68.0196 z"
         style="fill:#ffffff;fill-opacity:1;stroke:#000000;stroke-width:0.25418028px;stroke-linecap:butt;stroke-linejoin:miter;stroke-opacity:1" />
      <path
         sodipodi:nodetypes="ccccc"
         inkscape:connector-curvature="0"
         id="path4581-5-1-2-8"
         d="m 13.464643,181.58152 46.31093,-16.68346 c -4.81533,-11.57843 -1.50057,-22.40872 -0.32309,-33.43569 l -45.76878,-17.90044 c -15.7642707,22.92364 -9.2995297,41.48484 -0.21906,68.01959 z"
         style="fill:#ffffff;fill-opacity:1;stroke:#000000;stroke-width:0.25418028px;stroke-linecap:butt;stroke-linejoin:miter;stroke-opacity:1" />
      <path
         sodipodi:nodetypes="ccccc"
         inkscape:connector-curvature="0"
         id="path4581-5-9"
         d="m 68.835839,240.15688 19.14517,-46.42053 c -12.92928,-6.193 -19.47636,-17.49176 -27.70123,-27.44829 l -47.17604,17.41252 c 7.65178,30.07548 27.48845,40.88687 55.7321,56.4563 z"
         style="fill:#7d4cdb;fill-opacity:1;stroke:#000000;stroke-width:0.27444074px;stroke-linecap:butt;stroke-linejoin:miter;stroke-opacity:1" />
      <path
         sodipodi:nodetypes="ccccc"
         inkscape:connector-curvature="0"
         id="path4581-5-1"
         d="m 13.343115,112.33583 46.42052,19.14517 c 6.193,-12.92928 17.49176,-19.47636 27.44829,-27.70123 L 69.799405,56.603729 c -30.07548,7.65178 -40.88686,27.488451 -56.45629,55.732101 z"
         style="fill:#7d4cdb;fill-opacity:1;stroke:#000000;stroke-width:0.27444074px;stroke-linecap:butt;stroke-linejoin:miter;stroke-opacity:1" />
      <path
         sodipodi:nodetypes="ccccc"
         inkscape:connector-curvature="0"
         id="path4581-5-2"
         d="m 196.65686,184.66415 -46.42052,-19.14517 c -6.193,12.92928 -17.49176,19.47636 -27.44829,27.70123 l 17.41252,47.17604 c 30.07548,-7.65178 40.88686,-27.48845 56.45629,-55.7321 z"
         style="fill:#7d4cdb;fill-opacity:1;stroke:#000000;stroke-width:0.27444074px;stroke-linecap:butt;stroke-linejoin:miter;stroke-opacity:1" />
      <path
         sodipodi:nodetypes="ccccc"
         inkscape:connector-curvature="0"
         id="path4581-5"
         d="m 141.16416,56.843129 -19.14517,46.420521 c 12.92928,6.193 19.47636,17.49176 27.70123,27.44829 l 47.17604,-17.41252 C 189.24448,83.223936 169.40781,72.412558 141.16416,56.843129 Z"
         style="fill:#7d4cdb;fill-opacity:1;stroke:#000000;stroke-width:0.27444074px;stroke-linecap:butt;stroke-linejoin:miter;stroke-opacity:1" />
      <circle
         style="fill:none;stroke:#333333;stroke-width:6"
         r="99.596718"
         cy="148.5"
         cx="105"
         id="path3713" />
      <ellipse
         ry="46.462749"
         rx="45.706795"
         style="fill:none;stroke:#333333;stroke-width:5.43312693"
         cy="148.5"
         cx="105"
         id="path3713-3" />
      <rect
         transform="matrix(0.35618893,0.93441396,-0.94006447,0.34099676,0,0)"
         y="-46.544453"
         x="77.022644"
         height="1.478616"
         width="50.487305"
         id="rect4639"
         style="fill:none;fill-opacity:1;stroke:#333333;stroke-width:2.73704696" />
      <rect
         transform="matrix(0.35618894,0.93441396,-0.94006447,0.34099677,0,0)"
         y="-45.917999"
         x="223.53915"
         height="1.478616"
         width="50.487305"
         id="rect4639-7"
         style="fill:none;fill-opacity:1;stroke:#333333;stroke-width:2.73704696" />
      <rect
         transform="matrix(-0.93441396,0.35618894,-0.34099677,-0.94006447,0,0)"
         y="-176.96942"
         x="-146.67426"
         height="1.478616"
         width="50.487305"
         id="rect4639-0"
         style="fill:none;fill-opacity:1;stroke:#333333;stroke-width:2.73704696" />
      <rect
         transform="matrix(0.93441396,-0.35618894,0.34099677,0.94006447,0,0)"
         y="175.39749"
         x="-50.524124"
         height="1.478616"
         width="50.487305"
         id="rect4639-9"
         style="fill:none;fill-opacity:1;stroke:#333333;stroke-width:2.73704696" />
      <rect
         transform="matrix(-0.35618894,0.93441396,0.94006447,0.34099677,0,0)"
         y="149.23311"
         x="5.3884811"
         height="1.478616"
         width="50.487305"
         id="rect4639-3"
         style="fill:none;fill-opacity:1;stroke:#333333;stroke-width:2.73704696" />
      <rect
         transform="matrix(-0.35618894,0.93441396,0.94006447,0.34099677,0,0)"
         y="149.88208"
         x="151.82942"
         height="1.478616"
         width="50.487305"
         id="rect4639-3-6"
         style="fill:none;fill-opacity:1;stroke:#333333;stroke-width:2.73704696" />
      <rect
         transform="matrix(-0.93441396,-0.35618894,-0.34099677,0.94006447,0,0)"
         y="100.10526"
         x="-101.02954"
         height="1.478616"
         width="50.487305"
         id="rect4639-3-0"
         style="fill:none;fill-opacity:1;stroke:#333333;stroke-width:2.73704696" />
      <rect
         transform="matrix(-0.93441396,-0.35618894,-0.34099677,0.94006447,0,0)"
         y="99.685394"
         x="-248.18655"
         height="1.478616"
         width="50.487305"
         id="rect4639-3-0-6"
         style="fill:none;fill-opacity:1;stroke:#333333;stroke-width:2.73704696" />
    </g>
  </g>
</svg>
